
   Rendező / Director	
	Herve Bodilis

   Szereplők / Starring
	Alex, Lauro Giotto, Yasmine, Regina Ice, Tony Carrera, Roxy Panther, Sunny Green, Regina Moon, Lea Lazur, Marek, Shanna Lynn, Virginie Caprice

   Leírás / Description:
	A nevem Virginie és én vagyok a pornó színésznő ... Meg kell egy kicsit fura, de nincs fantáziája! "Fantáziák ... még akkor is, ha ő nincs, mások izgatottan arra, hogy az valóra vele! közben forró fél, ő vezette be neki botfriend a züllött középosztály, furcsa emberek csuklyát, a nők levetkőzve, Sapphic játékok, fetisizmus, forró és mély sodomies és még a kettős behatolás, minden lyukba ... A meleg és a nem várt kedvező hangulat az őrület orgiákat, amelyben Virginie fogja tapasztalni, öröm és az első fantáziák ... A mély bevezetése a szexuális univerzum egy divatos és őrült éjszakát! The Story Of Virginie, egy új, nagy lecke a művészet adni és kapni öröm. Rendkívül elegáns és nagyon hardcore az új Marc Dorcel termelés!
	My name is Virginie and I'm a porn actress... it should be a bit wierd, but I don't have fantasies!" Fantasies... even if she doesn't have any, others are excited to make their's come true with her!! During a hot party, she is introduced by her botfriend to the depraved middle-class; strange men with cowl, women undressed, Sapphic games, fetishism, hot and deep sodomies and even double penetrations in every hole... A hot and unexpected atmosphere propitious of frenzy orgies in which Virginie will discover pleasure and her first fantasies... A deep introduction to a sexual universe in a trendy and crazy night!!! The Story Of Virginie, a new extensive lesson in the art of giving and receiving pleasure. An extremely chic and very hardcore new Marc Dorcel production!

   Studió / Prod Studio
	Marc Dorcel Production	

   Műfaj / Genre
	All Sex, Fetish, Fantasies	

   Kiadási dátum / Release date 
	Sep 14, 2007

   Képek / Picture:


	[URL=http://www.kephost.com/][IMG]http://www.kephost.com/images3/h5jt0hk70bjknq375kpj.jpg[/IMG][/URL]
	[URL=http://www.kephost.com/][IMG]http://www.kephost.com/images3/fiv7c2ruo1esmntylb0q.jpg[/IMG][/URL]
	[URL=http://www.kephost.com/][IMG]http://www.kephost.com/images3/mdbya8ut06jtptxgjert.jpg[/IMG][/URL]
	[URL=http://www.kephost.com/][IMG]http://www.kephost.com/images3/ochfa0vy6x9rwv3zagaw.jpg[/IMG][/URL]
	
   Hivatalos oldal / Office:


General
Format                           : AVI
Format/Info                      : Audio Video Interleave
File size                        : 703 MiB
Duration                         : 1h 25mn
Overall bit rate                 : 1 145 Kbps
Writing application              : VirtualDubMod 1.5.10.2 (build 2540/release)
Writing library                  : VirtualDubMod build 2540/release

Video
ID                               : 0
Format                           : MPEG-4 Visual
Format profile                   : Advanced Simple@L5
Format settings, BVOP            : Yes
Format settings, QPel            : No
Format settings, GMC             : No warppoints
Format settings, Matrix          : Default (H.263)
Muxing mode                      : Packed bitstream
Codec ID                         : XVID
Codec ID/Hint                    : XviD
Duration                         : 1h 25mn
Bit rate                         : 1 002 Kbps
Width                            : 512 pixels
Height                           : 288 pixels
Display aspect ratio             : 16:9
Frame rate                       : 29.970 fps
Color space                      : YUV
Chroma subsampling               : 4:2:0
Bit depth                        : 8 bits
Scan type                        : Progressive
Bits/(Pixel*Frame)               : 0.227
Stream size                      : 615 MiB (87%)
Writing library                  : XviD 1.1.2 (UTC 2006-11-01)

Audio
ID                               : 1
Format                           : MPEG Audio
Format version                   : Version 1
Format profile                   : Layer 3
Mode                             : Joint stereo
Mode extension                   : MS Stereo
Codec ID                         : 55
Codec ID/Hint                    : MP3
Duration                         : 1h 25mn
Bit rate mode                    : Variable
Bit rate                         : 128 Kbps
Channel(s)                       : 2 channels
Sampling rate                    : 48.0 KHz
Stream size                      : 79.3 MiB (11%)
Alignment                        : Aligned on interleaves
Interleave, duration             : 24 ms (0.72 video frame)
Interleave, preload duration     : 475 ms
Writing library                  : LAME3.90.
Encoding settings                : -m j -V 4 -q 2 -lowpass 17.6 --abr 128